<svg id="Слой_1" data-name="Слой 1" xmlns="http://www.w3.org/2000/svg" viewBox="0 0 206.47 139.81"><defs><style>.cls-1{fill:#f2f2f3;}.cls-2{fill:#79719b;}</style></defs><g id="контуры"><polygon class="cls-1" points="68.96 96.48 68.96 97.2 102.17 97.2 102.17 96.48 73.05 96.48 68.96 96.48"/><path class="cls-1" d="M295.05,400.62c0-1.05.12-2.24.26-3.57,4.55,1.14,9.31,3.63,13.92,6.47a25.18,25.18,0,0,1-2.69,2.44c-.34.17-.44,0-.39-.51a10.17,10.17,0,0,0,2.13-1.83,48.53,48.53,0,0,0-12.51-5.88,14,14,0,0,0-.12,2.85C295.43,400.87,295.23,400.93,295.05,400.62Z" transform="translate(-194.56 -351.87)"/><path class="cls-1" d="M305.28,391.57c-2-2.15-4.7-5.52-4.65-8.32.12-4,4.08-6.93,7.89-9.15,4.6-3.11,4.25-6.46-.18-10-1.62-1.8-7.29-3.78-7.23-6.93a9.55,9.55,0,0,1,4-4.83c.14-.29.1-.45-.21-.45a8.69,8.69,0,0,0-4.41,5.31c-.18,3.3,6.19,5.92,7.71,7.41,3.54,3.25,4,6.31.06,9.09-4.49,2.49-7.92,5.4-8.19,9.57.09,3.26,2.06,6.13,4.83,8.82C305,392.34,305.67,392.13,305.28,391.57Z" transform="translate(-194.56 -351.87)"/><path class="cls-1" d="M400.74,470a161.78,161.78,0,0,0-25.32-15.42,16.24,16.24,0,0,1-3.78-6.9L352.08,440c-1.59,1.2-4.22,2.16-7.92,2.4-23.7-7.62-50.46-9.84-80.28-7.26a29,29,0,0,1-8.91-4.59l-29.61,6.75c-1.11,2.81-3.32,5.28-6.06,8-10.8,4.26-16.88,6.83-24.39,10.95-.26.41-.59.21-.08.82a156.85,156.85,0,0,1,24.56-11c1.38-.48,5.61-5.31,6.51-8.37,10.08-1.86,21.41-5,29.22-6.36,2.82,1.92,6.16,3.81,9.24,4.38,24.12-2.52,56.55-.57,79,7.23,3.48.54,7.41-1.47,9-2.25,5,2,12.84,5.16,18.54,7.38a18,18,0,0,0,4,7c3.33,1.67,17.28,9.14,25.58,15.34C401.34,470.81,401,470.29,400.74,470Z" transform="translate(-194.56 -351.87)"/></g><g id="ракета"><path class="cls-2" d="M268.2,448.44c.14-5.54,4.92-14.79,10.71-26.1-5.48-7.81-4.06-18.16,1.3-29.92a1.27,1.27,0,0,1,1.85.35c-.38,6.74.13,12.2,3.69,14.4l1.17-2.2c5.58-4.05,21.74,3.2,21.87,9.86l-1.26,2.87c5.74.48,10-3.1,13.55-6.25,1-.36,1.54-.05,1.39,1.08-5.29,11.52-12.18,19.24-22.09,19.85l-7.66,16.06Z" transform="translate(-194.56 -351.87)"/><path class="cls-1" d="M320.9,410.91c-3.56,3.64-9.37,7.29-12.6,6.17l1.66-3.74c.54-7.7-17.32-15.26-22.73-10.62-.65,1.47-1.22,2.69-1.7,3.69-2.93-2.83-3.2-6.39-3.15-14a1.64,1.64,0,0,0-2.43-.53c-6,12.67-6.77,22.91-1.8,30.41-4.32,9.86-9.91,19-10.58,26.15h.59c.74-7.68,6.3-16.17,10.62-26.1-5.17-8-4-18.3,1.52-30.11.5-.22,1.54,0,1.44.5.14,7.53.18,11.61,4,14.62l2.11-4.36c5.4-3.78,21.24,2.29,21.65,10.3l-1.85,4.19c3.33,1.75,9.54-1.94,13.23-5.94.9-.54,1.89.13,1.57.94-4.9,11.07-13.36,20.21-22,19.85l-7.72,16.11h.61l7.38-15.53c8.46.1,17.14-8.82,22.32-20.33A1.52,1.52,0,0,0,320.9,410.91Z" transform="translate(-194.56 -351.87)"/><path class="cls-1" d="M309,414.73l-.54.91c.54-5.87-15-14.67-21.6-10.67l.5-.81C293.89,400.83,308.65,408.66,309,414.73Z" transform="translate(-194.56 -351.87)"/><path class="cls-1" d="M289.8,438.42c1.44-1.92,1.8-4.08-.6-6.72a5,5,0,0,0-8,2,4.8,4.8,0,0,0,2,5.7A4.87,4.87,0,0,0,289.8,438.42Zm-6.26.19a4.09,4.09,0,0,1-1.72-4.57,4.59,4.59,0,0,1,7.38-1.44c1.26,2.52,1.14,2.94.36,5C287.1,441.06,283.54,438.61,283.54,438.61Z" transform="translate(-194.56 -351.87)"/><path class="cls-1" d="M296.25,425.45c1.44-1.92,1.8-4.08-.6-6.72a5,5,0,0,0-8,2,4.8,4.8,0,0,0,2,5.7A4.87,4.87,0,0,0,296.25,425.45Zm-6.26.19a4.09,4.09,0,0,1-1.72-4.57c2-3.66,5.23-3.42,7.38-1.44,1.26,2.52,1.14,2.94.36,5C293.55,428.09,290,425.64,290,425.64Z" transform="translate(-194.56 -351.87)"/><path class="cls-1" d="M272.76,448.44a9.92,9.92,0,0,0,1.56-2.82,9.53,9.53,0,0,0-1.26-2.16l2.34-4.86c0-.33-.21-.48-.6-.36l-2.4,5.1a18.12,18.12,0,0,0,1.14,2.16,12.51,12.51,0,0,1-1.44,2.94Z" transform="translate(-194.56 -351.87)"/></g><g id="элипсы"><path class="cls-1" d="M241.17,447.89c-.51-1.62-5.73-1.42-11.66.45s-10.33,4.7-9.82,6.32,5.74,1.42,11.67-.45S241.69,449.51,241.17,447.89Zm-9.81,5.56c-3.08,1.2-9.7,2.23-10.86,1-.44-1.38,3.43-3.15,9-5.31,5.74-1.46,9.6-1.93,10.92-1.07C240.84,449.42,236.7,451.82,231.36,453.45Z" transform="translate(-194.56 -351.87)"/><path class="cls-1" d="M246,474c-2.28-5.85-11.4-6.25-19.72-2.45s-13,10.82-11.27,15.68c3.24,5.4,12.11,5.7,20.43,1.89S247.41,479.49,246,474Zm-10.29,14.09s-13.05,6.34-19.62-.79c-1.43-6.28,2.46-10.89,10.26-15.28,8-3,16.47-3.33,18.58,2.29C247,482.28,235.71,488.09,235.71,488.09Z" transform="translate(-194.56 -351.87)"/><path class="cls-1" d="M371,478.74c1.44-1.92-2.94-7.44-11.82-10.86-3.6-1.67-15.35-4.8-17.22,0-.72,2.1,2.88,7.14,11.64,10.32C363.6,481.86,369,481.5,371,478.74Zm-17.4-1.38s-8.82-2.88-10.92-9.36c2-3.66,13.08-.84,16.86.9,8.05,3,11.4,7.62,10.62,9.66C366.48,482.82,353.64,477.36,353.64,477.36Z" transform="translate(-194.56 -351.87)"/></g></svg>